<?xml version="1.0" encoding="UTF-8"?>
<svg xmlns="http://www.w3.org/2000/svg" id="Layer_1" data-name="Layer 1" viewBox="0 0 100 100">
  <defs>
    <style>.cls-1{fill:#f3185a;}.cls-2{fill:#fff;}</style>
  </defs>
  <title>icon</title>
  <path class="cls-1" d="M99.9962,49.4248a54.7787,54.7787,0,0,0-.4071-5.8259,48.8693,48.8693,0,0,0-5.0968-16.43,50.6363,50.6363,0,0,0-4.6042-7.34A51.3272,51.3272,0,0,0,77.2013,8.0469c-.6183-.376-1.2164-.7871-1.84-1.1481-.6334-.3509-1.2617-.7069-1.89-1.0679-.6483-.3159-1.2917-.6367-1.9351-.9726-.6484-.3109-1.317-.5766-1.97-.8825A50.7124,50.7124,0,0,0,61.363,1.3086,46.7517,46.7517,0,0,0,52.7878.09L52.2449.0451,51.677.04,50.536.0251,49.3346,0H0V50.5278l.01.13.01.2607c.03.6969.05,1.3938.07,2.0957.0705.7219.1307,1.4489.181,2.1709.0553.727.196,1.4339.2765,2.1509a51.5024,51.5024,0,0,0,1.9855,8.4079c.2513.6769.4573,1.3637.7137,2.0356.2764.6668.5479,1.3336.8093,2.0054.3065.6518.6132,1.3036.9047,1.96.3066.6568.6735,1.2785.99,1.9252A50.0943,50.0943,0,0,0,31.31,96.3929a46.5154,46.5154,0,0,0,8.2534,2.5119,52.4371,52.4371,0,0,0,8.6053,1.0629,51.1719,51.1719,0,0,0,17.1351-2.3314A50.253,50.253,0,0,0,92.2153,76.8045a51.3063,51.3063,0,0,0,4.0161-7.6659,50.7449,50.7449,0,0,0,2.5736-8.2325,51.5944,51.5944,0,0,0,1.1561-8.5884c.02-.5114.03-1.0278.0351-1.5442C100.0013,50.3272,100.0013,49.876,99.9962,49.4248Z"></path>
  <path class="cls-2" d="M37.7519,67.8511c1.4714,0,2.7438-.002,4.0163.0006,1.08.0023,2.16-.0115,3.2391.0231a.9837.9837,0,0,1,1.0562,1.1182.9993.9993,0,0,1-1.0426,1.0148c-.1651.0155-.3319.0169-.4979.0169q-5.4825.0014-10.965.0019c-.8037.0006-1.58-.0859-1.55-1.14.0278-.9747.7756-1.018,1.5247-1.0407a4.0881,4.0881,0,0,0,3.2-3.1472c.1048-.9232-.5737-.64-.9888-.6417-3.8211-.0192-7.6422-.0113-11.4633-.0117-.4154,0-.8311.0092-1.246-.0063a2.9,2.9,0,0,1-3.0168-2.9728q-.0346-14.08.003-28.16c.0055-1.8358,1.2929-2.93,3.3029-2.9322Q36.0331,29.96,48.7424,29.97c4.07,0,8.1407-.014,12.2109.01a2.95,2.95,0,0,1,3.08,2.7824c.0156.6343-.12,1.1879-.84,1.3231a1.0062,1.0062,0,0,1-1.3023-.8361c-.1972-.9436-.8462-1.1085-1.672-1.108q-18.1919.0112-36.3836-.0047c-1.1469-.0015-1.67.4392-1.6659,1.6189.0207,6.3131.0317,12.6264-.0126,18.9393-.0076,1.0762.47,1.2149,1.3582,1.212,6.77-.0226,13.54-.0126,20.31-.0113.4152,0,.8323-.01,1.245.0248a1.0622,1.0622,0,0,1,.03,2.1188c-.4117.0412-.8295.03-1.2445.03q-10.03.0024-20.0609.0018c-1.6136,0-1.6145.0039-1.6167,1.6667-.0012.8722.017,1.7448-.0017,2.6166a1.2965,1.2965,0,0,0,1.5065,1.5165c1.2042-.0172,2.4089-.0015,3.6134-.0014q8.2238,0,16.4474,0c.3738,0,.7476.0007,1.1213.0088.7238.0156,1.219.3139,1.2024,1.106-.0168.8011-.5541,1.05-1.2595,1.0535-1.4121.0067-2.8264.0524-4.2357-.01-.9152-.04-1.4954.1286-1.6312,1.1791A7.8659,7.8659,0,0,1,37.7519,67.8511Z"></path>
  <path class="cls-2" d="M47.9138,52.9615c0-4.5265-.0076-9.0531.0029-13.58.0054-2.3129,1.119-3.427,3.4453-3.4317q8.5962-.0174,17.1925,0c2.3388.0045,3.4492,1.1107,3.464,3.4145.0112,1.7441-.0009,3.4883.002,5.2325.0012.7712-.1347,1.4743-1.1028,1.461s-1.0533-.7349-1.0748-1.4946c-.07-2.4492-.077-2.4491-2.5765-2.449-5.274,0-10.5482.0206-15.822-.0179-1.001-.0073-1.3855.2594-1.3756,1.3245q.0707,7.599.0025,15.1989c-.0079.995.3342,1.2847,1.299,1.2735,3.6955-.0431,7.3918-.0165,11.0878-.0155.591,0,1.1911-.0063,1.4766.6627.3569.8363-.2037,1.4937-1.3516,1.5017-3.0313.0212-6.0629.0092-9.0944.01-3.4015.0005-3.4015,0-3.3992,3.3735.0016,2.3644.0624,2.4249,2.4619,2.4256q4.921.0015,9.8421.0009c.7831,0,1.6015.0234,1.6031,1.0832.0017,1.0568-.8123,1.0914-1.5979,1.0912-3.7375-.001-7.475.0129-11.2125-.0061-2.1313-.0108-3.2625-1.1774-3.2685-3.3544C47.9052,62.0977,47.9139,57.53,47.9138,52.9615ZM59.8387,39.937c2.9849,0,5.97.0038,8.9549-.0041.4378-.0012.9883.103,1.0216-.5867a1.0364,1.0364,0,0,0-.8943-1.1629,5.7876,5.7876,0,0,0-1.1144-.0544q-5.5346-.0051-11.0692-.0019c-1.7827.0006-3.5654-.0035-5.348.011-.7765.0064-1.308.3733-1.2613,1.1987.0483.8543.7752.586,1.2533.59C54.2,39.95,57.02,39.938,59.8387,39.937Z"></path>
  <path class="cls-2" d="M79.9947,59.0154c0,2.533.01,5.0662-.0026,7.5992-.0114,2.2506-1.13,3.393-3.345,3.4074q-3.7371.0241-7.4746-.0006a2.9821,2.9821,0,0,1-3.3091-3.3143q-.02-7.7236-.0006-15.4476c.0052-2.178,1.1364-3.326,3.28-3.3408q3.7993-.0262,7.5992.0006a2.9573,2.9573,0,0,1,3.2476,3.2477C80.01,53.783,79.9943,56.3992,79.9947,59.0154Zm-7.1682-4.9378c-1.2028,0-2.4068.0324-3.608-.0112-.82-.03-1.214.2021-1.1983,1.1122.0435,2.5293.0352,5.06.0034,7.59-.01.7994.2706,1.11,1.0836,1.1,2.53-.0319,5.06-.028,7.59-.0011.764.0081,1.1443-.2021,1.1329-1.05-.0348-2.5711-.0277-5.143-.0033-7.7143.007-.7409-.2632-1.0521-1.0188-1.033C75.4815,54.1032,74.1537,54.079,72.8265,54.0776Zm.1179-2.1794c1.3238,0,2.6476.0037,3.9714-.0024.3715-.0017.7879.0238.8648-.4862a1.07,1.07,0,0,0-.4508-1.0848,1.7128,1.7128,0,0,0-1.0712-.233q-3.3509-.0008-6.7016.0022a2.5954,2.5954,0,0,0-.6158.0511,1.052,1.052,0,0,0-.8755,1.1774c.0432.683.5966.5683,1.0315.5727C70.38,51.9079,71.662,51.9,72.9444,51.8982Zm.05,14.1415c-1.3237,0-2.6473-.0053-3.9709.0031-.4044.0026-.8916-.0669-.9556.5239A1.0153,1.0153,0,0,0,68.78,67.735a3.2584,3.2584,0,0,0,.9768.1105c1.489.011,2.9782.0065,4.4672.0051.7859-.0007,1.5723.01,2.3575-.0146a1.0835,1.0835,0,0,0,1.2037-1.1348c.0035-.8716-.704-.6429-1.1919-.654C75.3939,66.02,74.1939,66.0383,72.9944,66.04Z"></path>
  <path class="cls-2" d="M26.1591,48.0382c-.0007.9136.004,1.8273-.0022,2.7409-.0047.7058-.2585,1.2448-1.0548,1.261-.7893.0161-1.0991-.4866-1.1027-1.2078q-.014-2.803-.0034-5.6063c.0018-.7047.2572-1.2523,1.0529-1.2625.8726-.0111,1.1084.5833,1.11,1.3337C26.1614,46.2109,26.16,47.1245,26.1591,48.0382Z"></path>
  <path class="cls-2" d="M54.0718,54.0214c-.0006.9137.0041,1.8273-.0021,2.741-.0048.7061-.2589,1.2443-1.0557,1.26-.79.0154-1.0984-.4872-1.1019-1.2084q-.0138-2.8032-.0033-5.6065c.0017-.7047.2567-1.2517,1.0535-1.2609.8731-.01,1.1081.5836,1.11,1.3341Q54.0749,52.651,54.0718,54.0214Z"></path>
  <path class="cls-2" d="M41.9067,60.0368c-.3318,0-.6657.0237-.995-.0051a1.059,1.059,0,0,1-.009-2.1138c.6188-.05,1.2437-.0286,1.866-.0291.7635-.0007,1.329.2729,1.2976,1.1395-.0289.7984-.5884,1.022-1.2881,1.0246-.2905.0011-.581,0-.8715,0Z"></path>
  <path class="cls-2" d="M26.1617,40.0372c0,.2054-.0016.4109,0,.6163.0069.7775-.18,1.4384-1.1254,1.4175-.8683-.0191-1.0483-.6456-1.0448-1.373.0023-.493-.0037-.986.0046-1.4789.0117-.7.274-1.2262,1.0568-1.2392.7762-.0129,1.0766.4832,1.1,1.1947.01.2872.0016.5751.0016.8626Z"></path>
  <path class="cls-2" d="M54.0766,45.9908c0,.1232.0007.2465,0,.37-.0056.8.0334,1.6941-1.0987,1.6849-1.134-.0092-1.0693-.9141-1.0755-1.7064-.0033-.4107-.0031-.8219.0127-1.2322.0253-.6584.3155-1.1223,1.0226-1.1451.7717-.0249,1.0964.448,1.1267,1.1666.0121.287.002.575.002.8625Z"></path>
  <path class="cls-2" d="M59.9887,66.0372c-.1232,0-.2464.0005-.37,0-.8014-.0043-1.6939.0305-1.6842-1.0994s.9143-1.0705,1.707-1.0776c.4106-.0037.8217-.0031,1.2319.0132.6585.0262,1.1187.3157,1.14,1.0255.0232.7714-.44,1.1009-1.1626,1.1269-.2871.01-.5749.0017-.8624.0017Z"></path>
</svg>
