<svg viewBox="0 0 340 340" xmlns="http://www.w3.org/2000/svg"><path d="m194.3 195.4 26.533 9.476a16.34 16.34 0 0 0 17.682-4.5l7.883-8.824-6.49-6.249a4.587 4.587 0 0 0 -6.477.113l-3.333 3.443a7.365 7.365 0 0 1 -8.48 1.515l-18.945-9.1z" fill="#797996"/><path d="m138.855 178.011h19.082v39.889h-19.082z" fill="#abb2d8"/><path d="m197.423 329.609-42.315-107.5-16.84 6.629 37.325 94.821a9.545 9.545 0 0 0 8.881 6.048z" fill="#797996"/><path d="m97.78 329.609 42.315-107.5 16.839 6.629-37.325 94.821a9.543 9.543 0 0 1 -8.88 6.048z" fill="#797996"/><path d="m123.091 213.063h50.609a0 0 0 0 1 0 0v10.362a7.735 7.735 0 0 1 -7.735 7.735h-35.139a7.735 7.735 0 0 1 -7.735-7.735v-10.362a0 0 0 0 1 0 0z" fill="#abb2d8"/><path d="m170.8 177.9-36.532-12.26a19.6 19.6 0 1 0 36.532 12.26z" fill="#abb2d8"/><path d="m73.208 144.811a85.77 85.77 0 0 1 16.084-32.671 7.693 7.693 0 0 1 9.882-1.954l23.752 13.527s7.872 12.98 2.119 26.363-20.172 13.384-20.172 13.384l-26.773-9.56a7.714 7.714 0 0 1 -4.892-9.089z" fill="#abb2d8"/><path d="m211.334 188.02a13.588 13.588 0 0 0 -5.737-17.226l-82.671-47.081c-.725 9.847-4.017 28.345-18.053 39.747l89.427 31.94a13.587 13.587 0 0 0 17.034-7.38z" fill="#dae3f9"/><path d="m212.953 84.023a45.419 45.419 0 0 1 79.377-38.383s19.009 33.353-17.5 55.713-61.877-17.33-61.877-17.33z" fill="#a0a9ea"/><path d="m212.957 84.022a45.415 45.415 0 1 0 79.37-38.38 45.414 45.414 0 0 1 -79.37 38.38z" fill="#717ec1"/><path d="m25.9 57.873a30.035 30.035 0 0 1 45.387-34.073s16.413 17.026-5.319 37.066-40.068-2.993-40.068-2.993z" fill="#ffc37d"/><path d="m42.84 63.115a29.872 29.872 0 0 1 -16.933-5.244 30.027 30.027 0 1 0 45.522-33.971 30.039 30.039 0 0 1 -28.589 39.215z" fill="#f29059"/><path d="m37.232 208.639 4.1-16.562 4.646 17a17.26 17.26 0 0 0 9.907 11.341l8.437 3.582-8.435 3.581a17.259 17.259 0 0 0 -9.907 11.34l-4.646 17.006-4.051-16.775a17.261 17.261 0 0 0 -10.783-12.13l-8.153-3.022 8.653-3.53a17.265 17.265 0 0 0 10.232-11.831z" fill="#ffdc7a"/><path d="m149.418 49.232 4.1-16.562 4.646 17a17.259 17.259 0 0 0 9.906 11.341l8.436 3.581-8.436 3.581a17.257 17.257 0 0 0 -9.906 11.34l-4.644 17.011-4.052-16.775a17.26 17.26 0 0 0 -10.785-12.134l-8.15-3.018 8.655-3.534a17.265 17.265 0 0 0 10.23-11.831z" fill="#ffdc7a"/><path d="m278.775 218.274 4.1-16.563 4.645 17.006a17.259 17.259 0 0 0 9.907 11.34l8.435 3.581-8.435 3.581a17.26 17.26 0 0 0 -9.907 11.341l-4.645 17-4.052-16.774a17.261 17.261 0 0 0 -10.786-12.135l-8.15-3.018 8.655-3.534a17.263 17.263 0 0 0 10.233-11.825z" fill="#ffdc7a"/><path d="m141.158 144.947 28.506 14.905a3.943 3.943 0 0 1 .971 6.273 3.942 3.942 0 0 1 -4.582.739l-28.633-14.518a3.944 3.944 0 0 1 -1.965-4.743l.127-.387a3.943 3.943 0 0 1 5.576-2.269z" fill="#fff"/><circle cx="180.816" cy="170.215" fill="#fff" r="3.782"/><g fill="#3c3c4f"><path d="m207.33 167.754-82.672-47.082-23.752-13.527a11.241 11.241 0 0 0 -14.38 2.855 89.685 89.685 0 0 0 -16.721 34 11.2 11.2 0 0 0 7.113 13.2l26.778 9.564 24.6 8.785a23.043 23.043 0 0 0 7.06 16.249v17.772h-12.265a3.5 3.5 0 0 0 -3.5 3.5v10.362a11.248 11.248 0 0 0 11.235 11.235h.568l-36.871 93.66a3.5 3.5 0 0 0 3.257 4.782h12.949a12.97 12.97 0 0 0 12.137-8.266l24.734-62.837 24.736 62.837a12.968 12.968 0 0 0 12.136 8.266h12.95a3.5 3.5 0 0 0 3.257-4.782l-36.871-93.667h2.159a11.248 11.248 0 0 0 11.233-11.235v-10.362a3.5 3.5 0 0 0 -3.5-3.5h-12.263v-13.585a23.113 23.113 0 0 0 7.59-5.889l24.1 8.6 26.533 9.477a19.771 19.771 0 0 0 21.47-5.466l7.883-8.824a3.5 3.5 0 0 0 -.183-4.854l-9.785-9.421a3.5 3.5 0 0 0 -4.943.087l-6.515 6.729a3.855 3.855 0 0 1 -4.449.794l-7.221-3.468a17.044 17.044 0 0 0 -8.587-15.989zm-103.2-8.275-24.857-8.879a4.211 4.211 0 0 1 -2.663-4.97 82.765 82.765 0 0 1 15.448-31.346 4.206 4.206 0 0 1 5.384-1.058l21.8 12.414c-.964 9.31-4.257 24.026-15.11 33.839zm12.22 162.8a6.008 6.008 0 0 1 -5.623 3.83h-7.81l36-91.449h11.925zm75.932 3.83h-7.811a6.009 6.009 0 0 1 -5.623-3.83l-27.485-69.829 5.963-15.148zm-22.082-109.546v6.862a4.239 4.239 0 0 1 -4.234 4.235h-35.14a4.24 4.24 0 0 1 -4.235-4.235v-6.862zm-27.846-7v-13.117a22.888 22.888 0 0 0 12.082 1.637v11.48zm9.045-18.272a16.133 16.133 0 0 1 -15.829-13.151l26.19 9.354a16.085 16.085 0 0 1 -10.36 3.797zm44.086.814h-.006l-84.022-30.005c9.408-10.044 13.018-23.145 14.375-32.7l78.034 44.442a10.088 10.088 0 0 1 -8.38 18.268zm24.619 1.423a10.852 10.852 0 0 0 12.509-2.236l4.088-4.222 4.842 4.662-5.637 6.31a12.787 12.787 0 0 1 -13.894 3.538l-13.571-4.847a16.973 16.973 0 0 0 5.539-6.147z"/><path d="m88.025 48.693a33.526 33.526 0 1 0 -33.525 33.526 33.564 33.564 0 0 0 33.525-33.526zm-33.525 26.526a26.526 26.526 0 1 1 26.525-26.526 26.556 26.556 0 0 1 -26.525 26.526z"/><path d="m41.283 259.431h.052a3.5 3.5 0 0 0 3.376-2.578l4.645-17.006a13.686 13.686 0 0 1 7.9-9.041l8.436-3.581a3.5 3.5 0 0 0 0-6.443l-8.434-3.58a13.687 13.687 0 0 1 -7.9-9.041l-4.645-17.006a3.5 3.5 0 0 0 -3.376-2.578h-.042a3.5 3.5 0 0 0 -3.356 2.658l-4.1 16.563a13.8 13.8 0 0 1 -8.155 9.431l-8.655 3.534a3.5 3.5 0 0 0 .108 6.523l8.15 3.018a13.737 13.737 0 0 1 8.6 9.673l4.052 16.776a3.5 3.5 0 0 0 3.344 2.678zm-13.291-35.586.334-.135a20.83 20.83 0 0 0 12.3-14.229l.871-3.515 1.1 4.04a20.651 20.651 0 0 0 11.916 13.639l.845.359-.845.359a20.648 20.648 0 0 0 -11.913 13.637l-1.06 3.882-.858-3.552a20.733 20.733 0 0 0 -12.69-14.485z"/><path d="m137.468 70.9a13.739 13.739 0 0 1 8.6 9.674l4.052 16.774a3.5 3.5 0 0 0 3.351 2.679h.052a3.5 3.5 0 0 0 3.376-2.578l4.645-17.006a13.689 13.689 0 0 1 7.9-9.041l8.436-3.58a3.5 3.5 0 0 0 0-6.443l-8.441-3.579a13.689 13.689 0 0 1 -7.9-9.041l-4.639-17.011a3.571 3.571 0 0 0 -3.418-2.578 3.5 3.5 0 0 0 -3.356 2.658l-4.1 16.562a13.8 13.8 0 0 1 -8.155 9.433l-8.655 3.534a3.5 3.5 0 0 0 .108 6.523zm3.043-6.594a20.827 20.827 0 0 0 12.3-14.229l.871-3.516 1.1 4.039a20.643 20.643 0 0 0 11.916 13.641l.845.359-.846.359a20.646 20.646 0 0 0 -11.908 13.641l-1.06 3.883-.858-3.552a20.732 20.732 0 0 0 -12.692-14.488z"/><path d="m307.233 230.417-8.436-3.581a13.683 13.683 0 0 1 -7.9-9.041l-4.645-17a3.5 3.5 0 0 0 -3.376-2.578h-.042a3.5 3.5 0 0 0 -3.356 2.658l-4.1 16.561a13.806 13.806 0 0 1 -8.157 9.432l-8.654 3.534a3.5 3.5 0 0 0 .108 6.523l8.15 3.017a13.74 13.74 0 0 1 8.6 9.674l4.051 16.774a3.5 3.5 0 0 0 3.351 2.679h.053a3.5 3.5 0 0 0 3.375-2.578l4.645-17.006a13.68 13.68 0 0 1 7.9-9.04l8.436-3.581a3.5 3.5 0 0 0 0-6.443zm-11.171 3.583a20.638 20.638 0 0 0 -11.915 13.639l-1.061 3.883-.858-3.552a20.733 20.733 0 0 0 -12.692-14.488l.332-.136a20.828 20.828 0 0 0 12.305-14.229l.871-3.516 1.1 4.039a20.639 20.639 0 0 0 11.915 13.641l.846.359z"/><path d="m312.3 102.565a3.5 3.5 0 0 0 -1.274 4.783c8.029 13.859 7.791 19.937 6.385 21.343a3.787 3.787 0 0 1 -2.727.819c-5.017 0-15.529-4.388-29.814-14.4a48.9 48.9 0 1 0 -67.92-67.91c-12.542-17.9-16.25-29.873-13.577-32.545 1.555-1.55 9-1.614 26.1 9.281a3.5 3.5 0 1 0 3.761-5.9c-17.482-11.147-29.194-13.949-34.81-8.33-5.3 5.3-3.078 16.071 6.594 32.025 2.352 3.878 5.085 7.944 8.127 12.127a48.89 48.89 0 0 0 65.059 65.06c4.183 3.042 8.249 5.775 12.128 8.127 10.325 6.259 18.48 9.4 24.386 9.4a10.332 10.332 0 0 0 7.639-2.8c5.037-5.036 3.262-15.063-5.277-29.8a3.5 3.5 0 0 0 -4.78-1.28zm-54.9 14.011a41.917 41.917 0 0 1 -39.382-56.262 316.053 316.053 0 0 0 25.316 28.416 315.885 315.885 0 0 0 28.414 25.315 41.73 41.73 0 0 1 -14.348 2.531zm-9.117-32.795a298.453 298.453 0 0 1 -26.9-30.516 41.9 41.9 0 1 1 57.413 57.422 298.9 298.9 0 0 1 -30.513-26.906z"/></g></svg>